<svg width="160" height="16" viewBox="0 0 160 16" fill="none" xmlns="http://www.w3.org/2000/svg">
<path d="M88.862 6.479L83.4201 10.001L85.0211 15.725L79.7335 12.267L74.1053 15.541L76.2797 9.88098L71.2031 6.18103L77.8341 6.14099L80.3258 0.580078L82.2499 6.21606L88.862 6.479Z" fill="#FFC600"/>
<path d="M53.7248 6.479L48.2829 10.001L49.8839 15.725L44.5963 12.267L38.9681 15.541L41.1425 9.88098L36.0659 6.18103L42.6969 6.14099L45.1886 0.580078L47.1127 6.21606L53.7248 6.479Z" fill="#FFC600"/>
<path d="M18.59 6.479L13.1481 10.001L14.7491 15.725L9.46148 12.267L3.83329 15.541L6.00774 9.88098L0.931152 6.18103L7.56214 6.14099L10.0539 0.580078L11.9779 6.21606L18.59 6.479Z" fill="#FFC600"/>
<path d="M123.997 6.479L118.555 10.001L120.156 15.725L114.869 12.267L109.241 15.541L111.415 9.88098L106.338 6.18103L112.969 6.14099L115.461 0.580078L117.385 6.21606L123.997 6.479Z" fill="#FFC600"/>
<path d="M159.134 6.479L153.693 10.001L155.293 15.725L150.006 12.267L144.378 15.541L146.552 9.88098L141.476 6.18103L148.107 6.14099L150.598 0.580078L152.522 6.21606L159.134 6.479Z" fill="#C1C8CE"/>
</svg>
