<svg width="23" height="18" viewBox="0 0 23 18" fill="none" xmlns="http://www.w3.org/2000/svg">
<path fill-rule="evenodd" clip-rule="evenodd" d="M18.3101 12.4476C18.959 12.4468 19.5875 12.2759 20.0884 11.9641C20.5893 11.6523 20.9316 11.2189 21.057 10.7378L22.4642 5.42116C22.5457 5.11301 22.5358 4.79501 22.4352 4.49009C22.3347 4.18517 22.146 3.9009 21.8826 3.65768C21.6193 3.41446 21.2879 3.21831 20.9123 3.08344C20.5366 2.94857 20.1261 2.8783 19.7102 2.87764H5.69995V1.81431C5.69995 1.53229 5.55167 1.26185 5.28777 1.06243C5.02386 0.863021 4.66595 0.750977 4.29273 0.750977H1.49096C1.11774 0.750977 0.759787 0.863021 0.495882 1.06243C0.231976 1.26185 0.0837386 1.53229 0.0837386 1.81431C0.0837386 2.09632 0.231976 2.36677 0.495882 2.56618C0.759787 2.76559 1.11774 2.87764 1.49096 2.87764H2.89818V13.5109C2.341 13.5091 1.79561 13.6322 1.33112 13.8647C0.866623 14.0972 0.503892 14.4287 0.28893 14.8171C0.0739679 15.2056 0.0164301 15.6335 0.123592 16.0466C0.230753 16.4598 0.497792 16.8396 0.89089 17.138C1.28399 17.4364 1.78545 17.6398 2.33174 17.7227C2.87803 17.8055 3.4446 17.764 3.95961 17.6033C4.47462 17.4426 4.91491 17.17 5.22473 16.8201C5.53454 16.4702 5.69995 16.0586 5.69995 15.6376H15.5069C15.5091 16.0562 15.6754 16.4648 15.9848 16.8121C16.2941 17.1593 16.7327 17.4294 17.2451 17.5885C17.7575 17.7475 18.3208 17.7882 18.8638 17.7055C19.4068 17.6229 19.9052 17.4204 20.2961 17.1238C20.687 16.8273 20.9529 16.4499 21.0602 16.0392C21.1674 15.6286 21.1112 15.2031 20.8987 14.8166C20.6863 14.43 20.327 14.0997 19.8663 13.8673C19.4055 13.6349 18.864 13.511 18.3101 13.5109H5.69995V12.4476H18.3101ZM19.7173 5.0043L18.3101 10.321H5.69995V5.0043H19.7102H19.7173Z" fill="#33A0FF"/>
</svg>
