<svg width="38" height="26" viewBox="0 0 38 26" fill="none" xmlns="http://www.w3.org/2000/svg">
<path d="M1.9248 18.591C1.9248 17.7478 2.15603 16.911 2.76887 16.2284C4.57173 14.2188 9.46224 10.1152 19.3102 10.1152C29.159 10.1152 34.0486 14.2195 35.8515 16.2284C36.4643 16.911 36.6956 17.7478 36.6956 18.591C36.6956 20.0638 35.9705 21.4764 34.6799 22.5178C33.3892 23.5593 31.6388 24.1444 29.8136 24.1444H8.80681C6.98159 24.1444 5.23112 23.5593 3.9405 22.5178C2.64987 21.4764 1.9248 20.0638 1.9248 18.591V18.591Z" stroke="black" stroke-width="2" stroke-linecap="round" stroke-linejoin="round"/>
<path d="M8.87891 2.39941V5.20525" stroke="black" stroke-width="2" stroke-linecap="round"/>
<path d="M10.6177 11.5176V14.3234" stroke="black" stroke-width="2" stroke-linecap="round"/>
<path d="M29.7412 2.39941V5.20525" stroke="black" stroke-width="2" stroke-linecap="round"/>
<path d="M28.0029 11.5176V14.3234" stroke="black" stroke-width="2" stroke-linecap="round"/>
<path d="M19.3101 0.996094V5.20485" stroke="black" stroke-width="2" stroke-linecap="round"/>
<path d="M19.3101 10.1152V15.7269" stroke="black" stroke-width="2" stroke-linecap="round"/>
<path d="M33.2185 13.9333C30.5289 12.0653 26.0974 10.1152 19.3102 10.1152C12.5229 10.1152 8.09137 12.0646 5.40186 13.9333" stroke="black" stroke-width="2" stroke-linecap="round"/>
</svg>
