<svg width="30" height="30" viewBox="0 0 30 30" fill="none" xmlns="http://www.w3.org/2000/svg">
<g clip-path="url(#clip0_80_56)">
<path d="M10.4062 0H19.6094C28.0156 0 30 2 30 10.4062V19.6094C30 28.0156 28 30 19.5937 30H10.3906C1.98438 30 0 28 0 19.5937V10.3906C0 2 2 0 10.4062 0Z" fill="#5181B8"/>
<mask id="mask0_80_56" style="mask-type:luminance" maskUnits="userSpaceOnUse" x="0" y="0" width="30" height="30">
<path d="M10.4062 0H19.6094C28.0156 0 30 2 30 10.4062V19.6094C30 28.0156 28 30 19.5937 30H10.3906C1.98438 30 0 28 0 19.5937V10.3906C0 2 2 0 10.4062 0Z" fill="white"/>
</mask>
<g mask="url(#mask0_80_56)">
<path d="M-0.78125 -0.78125H30.7812V30.7812H-0.78125V-0.78125Z" fill="#5181B8"/>
</g>
<path fill-rule="evenodd" clip-rule="evenodd" d="M25.2414 9.80386C25.3871 9.331 25.2414 9 24.5613 9H22.2942C21.7113 9 21.4522 9.29948 21.3065 9.63048C21.3065 9.63048 20.1567 12.3731 18.5212 14.1384C17.9869 14.6586 17.7602 14.8162 17.4687 14.8162C17.323 14.8162 17.1124 14.6586 17.1124 14.1857V9.80386C17.1124 9.23643 16.9505 9 16.4647 9H12.9022C12.546 9 12.3193 9.26795 12.3193 9.50438C12.3193 10.0403 13.1289 10.1664 13.2261 11.648V14.895C13.2261 15.6043 13.0966 15.7304 12.8051 15.7304C12.044 15.7304 10.1656 12.9878 9.06447 9.83539C8.83777 9.25219 8.62726 9 8.0443 9H5.77727C5.12954 9 5 9.29948 5 9.63048C5 10.2137 5.76108 13.1139 8.57868 16.9441C10.4571 19.5606 13.0966 20.9791 15.4931 20.9791C16.9343 20.9791 17.1124 20.6639 17.1124 20.128V18.142C17.1124 17.5115 17.242 17.3854 17.7116 17.3854C18.0516 17.3854 18.6184 17.543 19.9624 18.804C21.5008 20.3014 21.7599 20.9791 22.6181 20.9791H24.8851C25.5329 20.9791 25.8567 20.6639 25.6624 20.0492C25.4519 19.4345 24.7232 18.536 23.7516 17.4642C23.2172 16.8495 22.4238 16.2033 22.1971 15.8722C21.857 15.4467 21.9542 15.2575 22.1971 14.895C22.1971 14.8792 24.9661 11.0964 25.2414 9.80386Z" fill="white"/>
</g>
<defs>
<clipPath id="clip0_80_56">
<rect width="30" height="30" fill="white"/>
</clipPath>
</defs>
</svg>
