<svg width="24" height="16" viewBox="0 0 24 16" fill="none" xmlns="http://www.w3.org/2000/svg">
<path fill-rule="evenodd" clip-rule="evenodd" d="M16.0879 2.94113C16.9007 2.94214 17.6958 3.12043 18.3777 3.45456C19.0597 3.78868 19.5995 4.26446 19.9323 4.82474C20.2652 5.38502 20.3769 6.00598 20.2541 6.61308C20.1313 7.22017 19.7792 7.78757 19.2401 8.24715C18.4661 8.90641 11.8663 13.5745 11.8663 13.5745C11.8663 13.5745 5.25243 8.9064 4.47847 8.2365C3.79575 7.65677 3.41996 6.90716 3.42306 6.13112C3.42306 5.28508 3.86781 4.47368 4.65952 3.87544C5.45123 3.2772 6.52504 2.94113 7.64468 2.94113C8.76433 2.94113 9.83814 3.2772 10.6298 3.87544C11.4216 4.47368 11.8663 5.28508 11.8663 6.13112C11.8663 5.28508 12.3111 4.47368 13.1028 3.87544C13.8945 3.2772 14.9683 2.94113 16.0879 2.94113ZM16.0879 0.814462C14.5651 0.812379 13.0829 1.18571 11.8663 1.87779C10.4727 1.10002 8.74828 0.73813 7.02345 0.86145C5.29862 0.98477 3.69459 1.58466 2.51874 2.54614C1.34288 3.50762 0.677837 4.76313 0.650992 6.07213C0.624147 7.38113 1.23746 8.65156 2.37333 9.64011C3.16418 10.3249 8.36941 14.0083 9.94548 15.1205C10.4668 15.4889 11.1539 15.6938 11.8677 15.6938C12.5815 15.6938 13.2686 15.4889 13.79 15.1205C15.3604 14.0093 20.5446 10.3355 21.3453 9.65179C22.2415 8.88547 22.8262 7.94011 23.0293 6.92901C23.2324 5.91792 23.0453 4.88401 22.4904 3.95124C21.9355 3.01847 21.0364 2.22641 19.9008 1.67005C18.7652 1.11368 17.4413 0.816635 16.0879 0.814462Z" fill="#33A0FF"/>
</svg>
