<svg width="30" height="20" viewBox="0 0 30 20" fill="none" xmlns="http://www.w3.org/2000/svg">
<path d="M23.7691 0.00143242H6.2309C2.7885 0.00143242 0 2.62887 0 5.87056V14.1294C0 17.3711 2.79 20 6.2309 20H23.7691C27.2115 20 30 17.3711 30 14.1294V5.87056C30 2.62887 27.21 0 23.7691 0V0.00143242ZM19.5555 10.4009L11.3524 14.0879C11.3024 14.1109 11.2471 14.1214 11.1916 14.1185C11.1362 14.1156 11.0824 14.0994 11.0353 14.0714C10.9882 14.0434 10.9493 14.0045 10.9222 13.9583C10.8951 13.9121 10.8807 13.8602 10.8804 13.8073V6.20561C10.8814 6.15245 10.8965 6.1004 10.9243 6.0543C10.9521 6.00821 10.9917 5.96956 11.0395 5.94198C11.0872 5.91439 11.1415 5.89876 11.1972 5.89654C11.253 5.89432 11.3084 5.90557 11.3584 5.92927L19.5631 9.84536C19.6177 9.87132 19.6636 9.91143 19.6954 9.96109C19.7271 10.0107 19.7436 10.0679 19.7428 10.1261C19.742 10.1843 19.724 10.241 19.6909 10.2899C19.6578 10.3388 19.6109 10.3777 19.5555 10.4023V10.4009Z" fill="#DF2424"/>
</svg>
