<svg width="28" height="55" viewBox="0 0 28 55" fill="none" xmlns="http://www.w3.org/2000/svg">
<path d="M23.4597 54.7131C22.8782 54.7151 22.3036 54.5868 21.7782 54.3375C21.2528 54.0883 20.7899 53.7245 20.4235 53.2729L1.6228 29.918C1.05029 29.2215 0.737305 28.3478 0.737305 27.4462C0.737305 26.5446 1.05029 25.671 1.6228 24.9745L21.0853 1.61955C21.746 0.824639 22.6954 0.324748 23.7247 0.22985C24.7539 0.134952 25.7788 0.45282 26.5737 1.11353C27.3686 1.77423 27.8685 2.72365 27.9634 3.75293C28.0583 4.78221 27.7404 5.80703 27.0797 6.60194L9.68025 27.4657L26.4958 48.3294C26.9718 48.9008 27.2742 49.5965 27.3671 50.3344C27.4601 51.0722 27.3397 51.8212 27.0203 52.4927C26.7009 53.1643 26.1958 53.7303 25.5648 54.1238C24.9338 54.5173 24.2033 54.7218 23.4597 54.7131Z" fill="#AEC2D8"/>
</svg>
