<svg width="28" height="55" viewBox="0 0 28 55" fill="none" xmlns="http://www.w3.org/2000/svg">
<path d="M4.9539 54.7131C5.53542 54.7151 6.10999 54.5868 6.6354 54.3375C7.1608 54.0883 7.62369 53.7245 7.99004 53.2729L26.7908 29.918C27.3633 29.2215 27.6763 28.3478 27.6763 27.4462C27.6763 26.5446 27.3633 25.671 26.7908 24.9745L7.32832 1.61955C6.66761 0.824639 5.71819 0.324748 4.68892 0.22985C3.65964 0.134952 2.63482 0.45282 1.83991 1.11353C1.045 1.77423 0.545107 2.72365 0.450209 3.75293C0.35531 4.78221 0.673178 5.80702 1.33388 6.60194L18.7333 27.4657L1.91776 48.3294C1.44177 48.9008 1.13942 49.5965 1.04646 50.3344C0.953514 51.0722 1.07386 51.8212 1.39326 52.4927C1.71266 53.1643 2.21775 53.7303 2.84876 54.1238C3.47978 54.5173 4.2103 54.7218 4.9539 54.7131Z" fill="#AEC2D8"/>
</svg>
