<svg width="1740" height="904" viewBox="0 0 1740 904" fill="none" xmlns="http://www.w3.org/2000/svg">
<path d="M129.223 93.9537C139.203 84.5268 170.702 68.0014 178.814 81.3811C185.351 96.2489 132.887 100.113 129.223 93.9537Z" fill="#F3DEE5"/>
<path d="M125.812 94.1685C130.291 79.7172 134.947 51.0304 117.739 51.8931C111.968 52.535 101.927 67.67 125.812 94.1685Z" fill="#F3DEE5"/>
<path d="M103.204 131.155C118.52 120.095 157.275 104.131 162.236 120.487C164.324 128.135 138.34 140.052 103.204 131.155Z" fill="#F3DEE5"/>
<path d="M100.057 130.52C82.7532 125.222 68.1284 78.9142 90.6867 78.0475C98.0307 78.3253 110.186 89.2088 100.057 130.52Z" fill="#F3DEE5"/>
<path d="M71.633 169.15C54.3289 163.851 39.7041 117.544 62.2624 116.677C69.6064 116.955 81.762 127.839 71.633 169.15Z" fill="#F3DEE5"/>
<path d="M39.9078 191.543C23.8662 186.696 9.88154 145.245 30.7145 144.621C37.5024 144.918 48.8442 154.718 39.9078 191.543Z" fill="#F3DEE5"/>
<path d="M0.358893 224.632C-14.6657 217.987 -21.2379 175.336 -0.51268 177.114C6.15246 178.189 15.658 189.197 0.358893 224.632Z" fill="#F3DEE5"/>
<path d="M143.987 159.223C145.165 165.927 137.348 171.569 117.834 173.85C98.3203 176.132 73.3208 167.484 73.3208 167.484C73.3208 167.484 83.1485 153.164 102.662 150.883C122.176 148.602 142.809 152.519 143.987 159.223Z" fill="#F3DEE5"/>
<path d="M55.1826 236.4C54.1019 241.037 47.1706 243.306 33.188 241.19C19.2055 239.074 4.54737 228.737 4.54737 228.737C4.54737 228.737 15.2947 221.121 29.2773 223.237C43.2598 225.353 56.2634 231.762 55.1826 236.4Z" fill="#F3DEE5"/>
<path d="M22.2341 267.224C20.4405 271.715 12.8305 273.159 -1.57253 269.406C-15.9756 265.653 -29.924 253.633 -29.924 253.633C-29.924 253.633 -17.5437 247.314 -3.14067 251.067C11.2624 254.819 24.0277 262.733 22.2341 267.224Z" fill="#F3DEE5"/>
<path d="M103.632 201.695C103.036 208.452 95.6048 215.402 77.7739 214.4C59.9431 213.398 39.9274 200.789 39.9274 200.789C39.9274 200.789 55.6517 190.091 73.4825 191.094C91.3134 192.096 104.228 194.937 103.632 201.695Z" fill="#F3DEE5"/>
<path fill-rule="evenodd" clip-rule="evenodd" d="M151.159 58.8848C152.359 59.3029 152.913 60.427 152.395 61.3956C129.326 104.528 65.9319 202.068 -67.6942 277.621C-68.7649 278.227 -70.2411 278.017 -70.9913 277.153C-71.7415 276.289 -71.4817 275.098 -70.411 274.492C62.2364 199.493 125.175 102.649 148.048 59.8818C148.566 58.9131 149.959 58.4668 151.159 58.8848Z" fill="white"/>
<path d="M143.948 68.0222C143.088 57.6119 145.314 27.6511 167.341 32.0966C177.83 34.2135 181.104 57.4561 143.948 68.0222Z" fill="#F3DEE5"/>
<g style="mix-blend-mode:color-dodge">
<path fill-rule="evenodd" clip-rule="evenodd" d="M166.063 38.3342C166.446 38.7049 166.385 39.2574 165.927 39.5684C162.336 42.004 154.555 49.7224 152.9 60.6836C152.827 61.164 152.288 61.5066 151.695 61.4488C151.102 61.391 150.681 60.9548 150.753 60.4744C152.486 48.9964 160.605 40.8952 164.54 38.226C164.999 37.9151 165.681 37.9635 166.063 38.3342ZM120.717 55.2746C121.308 55.2002 121.86 55.5274 121.951 56.0054C122.52 59.005 123.238 63.9212 123.551 68.9476C123.861 73.9465 123.778 79.1601 122.681 82.6975C122.536 83.167 121.948 83.4528 121.369 83.3359C120.79 83.219 120.438 82.7436 120.583 82.2742C121.595 79.011 121.7 74.0259 121.39 69.0392C121.082 64.0801 120.372 59.2238 119.813 56.275C119.722 55.7969 120.127 55.349 120.717 55.2746ZM156.925 85.9877C150.457 87.7652 143.689 90.3408 139.438 92.1701C138.91 92.3973 138.255 92.2352 137.976 91.808C137.696 91.3808 137.898 90.8504 138.426 90.6232C142.748 88.7633 149.626 86.1446 156.234 84.3286C159.536 83.4213 162.807 82.7041 165.677 82.3895C168.499 82.0803 171.139 82.1352 173.026 82.9494C173.553 83.1767 173.752 83.7072 173.47 84.1343C173.188 84.5614 172.533 84.7234 172.006 84.4961C170.747 83.9529 168.688 83.8271 165.963 84.1258C163.286 84.4191 160.162 85.0984 156.925 85.9877ZM90.2632 85.2538C90.8547 85.1855 91.4016 85.5183 91.4849 85.9973L96.6897 115.952C96.7729 116.43 96.3609 116.874 95.7694 116.943C95.1779 117.011 94.631 116.678 94.5478 116.199L89.343 86.2449C89.2598 85.7659 89.6718 85.3222 90.2632 85.2538ZM132.808 123.282C125.251 124.651 117.991 126.896 113.632 128.542C113.09 128.747 112.447 128.557 112.196 128.118C111.944 127.68 112.18 127.159 112.721 126.954C117.197 125.264 124.606 122.973 132.34 121.572C140.02 120.181 148.26 119.622 154.249 121.594C154.802 121.777 155.067 122.288 154.841 122.736C154.615 123.184 153.984 123.4 153.431 123.218C148.094 121.459 140.42 121.903 132.808 123.282ZM61.3521 123.792C61.9028 123.604 62.5367 123.813 62.7679 124.259C64.9232 128.414 68.7715 139.985 67.2672 153.568C67.2138 154.05 66.6883 154.407 66.0934 154.365C65.4985 154.322 65.0595 153.897 65.1129 153.415C66.5831 140.14 62.8038 128.855 60.7735 124.94C60.5423 124.494 60.8014 123.98 61.3521 123.792ZM105.328 159.422C97.7504 159.416 90.6592 160.738 86.4767 161.951C85.914 162.114 85.2955 161.877 85.0952 161.421C84.895 160.966 85.1888 160.464 85.7515 160.301C90.1409 159.029 97.4797 157.663 105.334 157.67C113.18 157.677 121.681 159.054 128.238 163.391C128.7 163.696 128.768 164.248 128.39 164.623C128.012 164.998 127.33 165.054 126.868 164.749C120.846 160.766 112.913 159.429 105.328 159.422ZM27.8164 152.369C28.312 152.098 28.984 152.204 29.3173 152.605C32.147 156.01 37.6645 166.131 37.8576 180.061C37.8643 180.545 37.3856 180.942 36.7884 180.948C36.1911 180.955 35.7015 180.568 35.6948 180.084C35.5061 166.478 30.1044 156.692 27.5223 153.585C27.189 153.184 27.3207 152.64 27.8164 152.369ZM-3.54631 182.068C-3.00307 181.866 -2.36143 182.059 -2.11317 182.498C-0.0944495 186.073 3.32184 197.281 1.6101 214.376C1.5618 214.858 1.04004 215.218 0.444715 215.18C-0.150617 215.142 -0.594076 214.72 -0.545782 214.238C1.14659 197.336 -2.26147 186.451 -4.08044 183.23C-4.3287 182.79 -4.08956 182.27 -3.54631 182.068ZM90.501 207.141C76.7515 200.83 60.9391 201.48 54.8161 202.586C54.2329 202.691 53.6556 202.394 53.5267 201.922C53.3978 201.45 53.766 200.981 54.3492 200.876C60.8196 199.707 77.2192 199.029 91.5702 205.616C92.0894 205.854 92.271 206.389 91.9757 206.81C91.6805 207.231 91.0202 207.379 90.501 207.141ZM-28.5897 202.223C-28.0135 202.095 -27.4189 202.369 -27.2617 202.835C-25.4845 208.11 -23.0294 222.005 -27.3009 235.787C-27.4464 236.257 -28.0339 236.542 -28.6132 236.425C-29.1925 236.309 -29.5442 235.833 -29.3987 235.364C-25.2393 221.943 -27.6426 208.363 -29.3485 203.3C-29.5056 202.833 -29.1659 202.351 -28.5897 202.223ZM47.5779 237.275C35.9486 230.005 20.1846 229.696 13.7818 230.462C13.1907 230.532 12.6418 230.202 12.5558 229.723C12.4698 229.244 12.8792 228.799 13.4703 228.728C20.1845 227.926 36.6297 228.216 48.9014 235.887C49.3738 236.182 49.4605 236.732 49.095 237.115C48.7295 237.499 48.0503 237.57 47.5779 237.275ZM-5.00845 259.342C-10.0866 257.993 -15.1172 257.51 -18.1653 257.478C-18.7625 257.472 -19.2394 257.075 -19.2304 256.591C-19.2215 256.107 -18.73 255.72 -18.1328 255.726C-14.8859 255.76 -9.63581 256.268 -4.33074 257.677C0.9616 259.083 6.43863 261.42 9.97831 265.187C10.3398 265.571 10.2473 266.121 9.7718 266.414C9.2963 266.708 8.61781 266.634 8.25636 266.25C5.09104 262.882 0.0823938 260.694 -5.00845 259.342Z" fill="#87C12F"/>
</g>
<path d="M236.162 571.254C235.527 573.617 232.599 575.117 229.623 574.604C226.647 574.092 224.749 571.76 225.384 569.397M236.162 571.254C236.797 568.891 234.899 566.56 231.922 566.047C228.946 565.534 226.019 567.034 225.384 569.397M236.162 571.254C236.12 571.408 236.069 571.558 236.009 571.704C246.474 575.482 252.742 584.491 250.764 593.76L250.875 593.194C250.854 593.432 250.812 593.671 250.748 593.91C250.007 596.667 246.592 598.417 243.12 597.819M225.384 569.397C225.343 569.551 225.312 569.705 225.296 569.857C214.127 569.857 204.04 575.673 200.774 584.364L200.718 584.522C200.609 584.755 200.519 584.997 200.452 585.248C199.711 588.005 201.926 590.724 205.398 591.322M243.12 597.819C239.805 597.248 237.637 594.744 238.091 592.12L238.163 591.774L238.056 592.114C237.123 594.656 233.86 596.224 230.546 595.654M243.12 597.819C244.061 597.981 244.997 597.971 245.878 597.815L238.39 611.926L202.464 605.739L202.886 590.41C203.608 590.843 204.457 591.16 205.398 591.322M243.12 597.819C239.647 597.221 237.433 594.502 238.174 591.745M205.398 591.322C208.7 591.891 211.951 590.336 212.898 587.811L213.015 587.443L212.943 587.789C212.489 590.413 214.657 592.917 217.972 593.488M205.398 591.322C208.87 591.92 212.285 590.17 213.026 587.414C212.285 590.17 214.499 592.89 217.972 593.488M217.972 593.488C221.286 594.059 224.549 592.49 225.482 589.949L225.589 589.609M217.972 593.488C221.431 594.084 224.831 592.348 225.589 589.609M225.589 589.609L225.517 589.955C225.063 592.579 227.231 595.083 230.546 595.654M225.589 589.609L225.6 589.579C224.859 592.336 227.073 595.056 230.546 595.654M230.546 595.654C234.018 596.252 237.433 594.502 238.174 591.745M238.174 591.745L238.229 591.565C238.205 591.625 238.19 591.685 238.174 591.745ZM234.336 600.783L231.905 606.333M223.558 598.927L222.025 604.632M212.781 597.071L212.146 602.93" stroke="#F3DEE5" stroke-width="2" stroke-linejoin="round"/>
<path d="M1630.99 611.054L1630.92 611.182C1635.66 611.915 1640.78 611.806 1645.91 610.807L1646.77 610.63C1662.01 607.362 1673.51 594.561 1669.71 583.171C1666.05 573.526 1657.43 568.895 1647.46 571.035C1642.02 572.202 1637.67 575.308 1635.62 579.355M1630.99 611.054L1632.24 608.6L1634.09 604.796M1630.99 611.054L1630.19 612.533L1629.71 613.354C1629.66 613.431 1629.61 613.504 1629.57 613.572C1628.35 615.455 1625.44 616.217 1623.06 615.274C1620.68 614.33 1619.74 612.038 1620.96 610.154L1621.31 609.565L1621.77 608.721L1622.78 606.775M1634.09 604.796L1634.51 603.904C1637.6 604.193 1640.92 603.995 1644.31 603.269C1654.72 601.036 1662.68 592.17 1660.39 585.296C1658.17 579.443 1654.42 577.43 1649.92 578.396C1647.66 578.881 1645.83 580.103 1644.83 581.721L1644.58 582.185L1636.73 599.218L1634.09 604.796ZM1635.62 579.355L1635.95 578.755L1636.05 578.587C1631.86 576.285 1626.54 575.522 1621.45 576.614C1611.48 578.754 1606.91 586.214 1609.79 596.115C1611.85 601.739 1616.23 605.921 1621.88 608.521L1622.78 606.775M1635.62 579.355L1632.49 586.173L1630.9 585.119L1630.39 584.819C1628.52 583.816 1626.18 583.49 1623.91 583.976C1619.41 584.941 1617.42 588.184 1619.15 594.143C1620.27 597.176 1622.51 599.571 1625.47 601.243L1624.34 603.612M1635.62 579.355L1629.98 591.645L1626.25 599.628L1624.34 603.612M1624.34 603.612L1622.78 606.775M1666.51 598.528L1667.23 598.97L1668.41 599.658L1668.83 599.884C1671.06 601.028 1671.68 603.39 1670.21 605.159C1668.74 606.928 1665.74 607.436 1663.5 606.292C1663.42 606.251 1663.34 606.206 1663.25 606.158L1662.32 605.64L1661.15 604.947L1660.44 604.512C1662.83 602.741 1664.89 600.713 1666.51 598.528ZM1643.86 583.735L1647.11 585.899L1656.91 592.386L1658.9 593.67C1657.5 595.889 1655.41 597.976 1652.85 599.673L1648.34 596.728L1640.33 591.396L1643.86 583.735Z" stroke="#F3DEE5" stroke-width="2" stroke-linejoin="round"/>
<g clip-path="url(#clip0_4008_71)">
<path d="M399.792 469.658L400.242 468.719C402.304 464.424 406.113 460.811 411.056 458.463L412.136 457.95C415.191 456.498 419.138 457.305 420.951 459.751C421.135 459.999 421.293 460.26 421.422 460.529C423.225 464.28 426.005 467.681 429.576 470.507L433.685 473.757C432.254 478.33 428.262 482.116 422.871 484.013L418.18 481.316C414.102 478.971 409.448 477.348 404.526 476.554C401.043 475.993 398.789 473.277 399.49 470.488C399.561 470.205 399.662 469.927 399.792 469.658ZM411.982 492.788L419.116 490.78C420.692 490.336 421.534 488.963 421.007 487.693C420.395 486.217 420.46 484.614 421.19 483.172L421.302 482.952L419.122 481.736C414.42 479.112 409.094 477.291 403.475 476.385L400.793 475.952L399.88 478.187C398.359 481.91 398.809 485.97 401.126 489.42C403.215 492.53 407.822 493.959 411.982 492.788ZM406.905 494.217L409.055 493.612L413.355 492.401L415.429 491.818C416.584 491.493 417.852 491.962 418.291 492.877L422.261 501.165C416.454 501.047 411.046 498.773 407.628 495.013L406.905 494.217ZM442.661 463.69L441.387 469.657C441.105 470.975 439.555 471.87 437.903 471.668C435.982 471.433 434.02 471.753 432.367 472.571L432.115 472.696L430.252 471.18C426.232 467.908 423.096 464.01 421.037 459.728L420.054 457.684L422.653 456.588C426.982 454.762 432.055 454.437 436.692 455.686C440.872 456.813 443.405 460.209 442.661 463.69ZM443.569 459.442L443.185 461.241L442.416 464.838L442.045 466.573C441.839 467.539 442.63 468.461 443.83 468.654L454.701 470.396C453.581 465.833 449.874 461.946 444.67 459.879L443.569 459.442Z" stroke="#F3DEE5" stroke-width="2" stroke-linejoin="round"/>
</g>
<g clip-path="url(#clip1_4008_71)">
<path d="M1471.61 478.745C1474.51 479.481 1476.12 481.963 1475.2 484.288C1474.29 486.614 1471.19 487.903 1468.28 487.167L1460.79 506.117C1460.33 507.279 1458.78 507.924 1457.33 507.556L1431.03 500.895C1429.58 500.527 1428.78 499.286 1429.24 498.123L1436.72 479.174C1433.82 478.438 1432.21 475.957 1433.13 473.631C1434.05 471.305 1437.15 470.016 1440.05 470.752L1471.61 478.745ZM1467.79 488.414L1476.59 492.915C1478.79 494.04 1479.44 496.381 1478.03 498.143C1476.63 499.905 1473.71 500.422 1471.5 499.297L1471.42 499.253L1460.02 513.558C1459.29 514.47 1457.78 514.737 1456.64 514.155L1436.35 503.785C1435.55 503.378 1435.15 502.664 1435.23 501.96L1457.33 507.556C1458.78 507.924 1460.33 507.279 1460.79 506.117L1467.79 488.414Z" stroke="#F3DEE5" stroke-width="2" stroke-linejoin="round"/>
</g>
<path d="M219.795 869.139L220.253 866.698L220.729 864.373L221.222 862.164L221.732 860.07L222.26 858.092L222.806 856.229C224.746 849.913 227.007 845.721 229.588 843.654C235.674 838.782 245.54 838.782 251.625 843.654M219.795 869.139L222.843 868.772L225.747 868.391L228.506 867.996L231.122 867.587L233.592 867.164L235.919 866.728C243.808 865.174 249.043 863.364 251.625 861.297C257.71 856.425 257.71 848.526 251.625 843.654M219.795 869.139C232.037 865.871 241.015 861.951 246.728 857.377C255.298 850.515 255.298 846.595 251.625 843.654M219.795 869.139C223.875 859.337 228.772 852.149 234.485 847.575C243.055 840.713 247.952 840.713 251.625 843.654M251.193 844L214.555 873.333M211.225 870.119L216.122 872.079L218.57 876L205.104 886.782C203.075 888.406 199.787 888.406 197.758 886.782C195.73 885.158 195.73 882.525 197.758 880.901L211.225 870.119Z" stroke="#F3DEE5" stroke-width="2" stroke-linejoin="round"/>
<path d="M1703.96 859.04L1704.92 858.278C1705.4 857.894 1705.9 857.534 1706.42 857.2C1709.15 856.972 1711.63 857.342 1715.25 858.317M1694.67 866.481L1695.62 865.719C1696.1 865.335 1696.6 864.976 1697.12 864.641C1699.85 864.413 1702.34 864.784 1705.96 865.758M1685.37 873.922L1686.33 873.16C1686.81 872.776 1687.31 872.417 1687.83 872.082C1690.56 871.854 1693.04 872.225 1696.67 873.199M1676.08 881.364L1677.03 880.601C1677.51 880.218 1678.01 879.859 1678.53 879.525C1681.26 879.295 1683.75 879.665 1687.37 880.64M1726.83 850.086C1730.08 852.69 1730.08 856.911 1726.83 859.515L1684.44 893.456C1681.19 896.059 1675.91 896.059 1672.66 893.456C1669.41 890.852 1669.41 886.631 1672.66 884.028L1715.05 850.086C1718.31 847.483 1723.58 847.483 1726.83 850.086Z" stroke="#F3DEE5" stroke-width="2" stroke-linejoin="round"/>
<defs>
<clipPath id="clip0_4008_71">
<rect width="69.3811" height="71.9769" fill="white" transform="matrix(0.725552 -0.688168 0.828522 0.559956 366.101 477.746)"/>
</clipPath>
<clipPath id="clip1_4008_71">
<rect width="65.107" height="54.3334" fill="white" transform="matrix(0.969387 0.24554 -0.36749 0.930028 1430.23 459)"/>
</clipPath>
</defs>
</svg>
